<svg t="1729959517204" class="icon" viewBox="0 0 1024 1024" version="1.1" xmlns="http://www.w3.org/2000/svg" p-id="1406" width="200" height="200"><path d="M847.35972634 806.46258606L597.88444834 565.16650924c-12.26936894-12.26936894-32.71793909-12.26936894-44.98730805 0s-12.26936894 32.71793909 0 44.98730802L802.37241833 851.44989407c4.09016774 4.08903347 12.26936894 8.17806694 20.44857013 8.17806696s16.35953667-4.08903347 20.44857015-8.17806696c16.35953667-12.26936894 16.35953667-32.71793909 4.09016773-44.98730801z m-196.30763452-327.18052515c12.26823467 0 20.44857014-8.17920121 24.53760361-20.44857015 4.09016774-8.18033546 0-20.44857014-8.17806692-28.6289056l-102.24511927-98.15381728 20.44857013-134.9619241c0-12.26936894-4.08903347-20.44857014-12.26823467-28.62890562-8.18033546-8.17806694-20.44970441-8.17806694-28.62890561-4.08903345l-126.7827229 65.43587816-126.78158861-61.34571043c-8.17920121-8.18033546-20.44857014-4.09016774-28.62890561 0-8.17806694 8.17920121-12.26936894 16.35840241-12.26936895 28.62890562l24.53873789 139.04982329-102.24285073 98.15495153c-8.18033546 8.17920121-12.2705032 20.44857014-8.18033547 28.62890562 4.09016774 8.17806694 12.26936894 16.35840241 24.53873788 20.44857014l143.14112529 20.44857015 65.43587816 126.78158862c4.09016774 8.18033546 16.35953667 16.35953667 24.5387379 16.35953668 12.26936894 0 20.44857014-4.09016774 24.53873788-16.35953668L512 503.82193306l139.05209182-24.53873789z m-188.12956758-16.35953667l-44.98730805 89.97461605-44.98730801-89.97461605c-4.08903347-8.17806694-12.26823467-12.26936894-20.44857014-16.35840242l-98.15381728-12.26936894 73.61507938-69.52604592c8.18033546-8.17920121 8.18033546-16.35840241 8.18033547-24.53873787l-20.44857015-98.15381727 89.97461608 44.98730804c8.17806694 4.09016774 16.35840241 4.09016774 24.53760362 0l89.97461605-44.98730804-16.35840242 98.15381727c0 8.18033546 0 16.35953667 8.17920121 24.53873787l73.61507937 69.52604592-98.15381726 12.26936894c-12.26936894 0-20.44857014 8.17920121-24.53873787 16.35840242z m-159.50066198 175.86019865l-24.53760362 73.61507938-77.7052471 24.53873787 77.7052471 24.53873789 24.53873789 73.61507938 24.53760361-73.61507938 77.7063814-24.53873789-77.7063814-24.53873787-24.53760361-73.61507938z m200.39893653-16.3595367l-12.26936893 36.80697257-36.80697257 12.2705032 36.80697257 12.26936895 12.26936893 36.80697256 12.26936895-36.80697256 36.80697255-12.26936895-36.80697255-12.26936892-12.26936895-36.80697258z" p-id="1407" fill="#ffffff"></path></svg>