<svg t="1729956007763" class="icon" viewBox="0 0 1024 1024" version="1.1" xmlns="http://www.w3.org/2000/svg" p-id="1374" width="200" height="200"><path d="M551.146667 76.501333l3.456 0.213334C777.664 98.304 949.333333 286.336 949.333333 512c0 241.536-195.797333 437.333333-437.333333 437.333333S74.666667 753.536 74.666667 512a435.797333 435.797333 0 0 1 114.346666-294.890667 32 32 0 1 1 47.274667 43.178667A371.797333 371.797333 0 0 0 138.666667 512c0 206.186667 167.146667 373.333333 373.333333 373.333333S885.333333 718.186667 885.333333 512c0-185.386667-135.786667-341.077333-315.669333-368.917333l-6.357333-0.917334V277.333333l-0.149334 3.072a32 32 0 0 1-63.701333 0L499.306667 277.333333V126.890667a50.432 50.432 0 0 1 51.84-50.389334z" fill="#ffffff" p-id="1375"></path><path d="M357.376 324.437333l184.213333 147.242667a63.36 63.36 0 0 1 2.837334 96.597333 62.122667 62.122667 0 0 1-94.506667-13.696l-124.053333-202.346666a21.333333 21.333333 0 0 1 31.509333-27.797334z" fill="#ffffff" p-id="1376"></path></svg>